# MagicaVoxel @ Ephtracy

# group
o 

# material
mtllib test_stage.mtl
usemtl palette

# normals
vn -1 0 0
vn 1 0 0
vn 0 0 1
vn 0 0 -1
vn 0 -1 0
vn 0 1 0

# texcoords
vt 0.630859 0.5
vt 0.748047 0.5
vt 0.986328 0.5

# verts
v 0 2 0
v 0 2 -12.6
v 0 2.1 0
v 0 2.1 -12.6
v 0.9 2.1 -6.1
v 0.9 2.1 -6.4
v 0.9 5.5 -6.1
v 0.9 5.5 -6.4
v 4.6 2.1 -6.4
v 4.6 2.1 -8.5
v 4.6 5.5 -6.4
v 4.6 5.5 -8.5
v 8.4 2.1 -7.2
v 8.4 2.1 -9.1
v 8.4 2.1 -10.9
v 8.4 2.2 -7.2
v 8.4 2.2 -10.9
v 9.1 2.2 -7.7
v 9.1 2.2 -10.9
v 9.1 2.4 -7.7
v 9.1 2.4 -10.9
v 9.8 2.4 -8.2
v 9.8 2.4 -10.9
v 9.8 2.7 -8.2
v 9.8 2.7 -10.9
v 10.4 2.7 -8.7
v 10.4 2.7 -10.9
v 10.4 3.1 -8.7
v 10.4 3.1 -10.9
v 4.9 2.1 -6.1
v 4.9 2.1 -8.5
v 4.9 5.5 -6.1
v 4.9 5.5 -8.5
v 12.5 2.1 -7.2
v 12.5 2.1 -10.9
v 12.5 2.2 -7.2
v 12.5 2.2 -7.7
v 12.5 2.4 -7.7
v 12.5 2.4 -8.2
v 12.5 2.7 -8.2
v 12.5 2.7 -8.7
v 12.5 3.1 -8.7
v 12.5 3.1 -10.9
v 12.6 2 0
v 12.6 2 -12.6
v 12.6 2.1 0
v 12.6 2.1 -12.6
v 0 2 0
v 0 2.1 0
v 12.6 2 0
v 12.6 2.1 0
v 0.9 2.1 -6.1
v 0.9 5.5 -6.1
v 4.9 2.1 -6.1
v 4.9 5.5 -6.1
v 8.4 2.1 -7.2
v 8.4 2.2 -7.2
v 11.7 2.1 -7.2
v 12.5 2.1 -7.2
v 12.5 2.2 -7.2
v 9.1 2.2 -7.7
v 9.1 2.4 -7.7
v 12.5 2.2 -7.7
v 12.5 2.4 -7.7
v 9.8 2.4 -8.2
v 9.8 2.7 -8.2
v 12.5 2.4 -8.2
v 12.5 2.7 -8.2
v 10.4 2.7 -8.7
v 10.4 3.1 -8.7
v 12.5 2.7 -8.7
v 12.5 3.1 -8.7
v 0.9 2.1 -6.4
v 0.9 5.5 -6.4
v 1.1 2.1 -6.4
v 3.1 2.1 -6.4
v 4.6 2.1 -6.4
v 4.6 5.5 -6.4
v 4.6 2.1 -8.5
v 4.6 5.5 -8.5
v 4.9 2.1 -8.5
v 4.9 5.5 -8.5
v 8.4 2.1 -10.9
v 8.4 2.2 -10.9
v 9.1 2.2 -10.9
v 9.1 2.4 -10.9
v 9.8 2.4 -10.9
v 9.8 2.7 -10.9
v 10.4 2.7 -10.9
v 10.4 3.1 -10.9
v 12.5 2.1 -10.9
v 12.5 3.1 -10.9
v 0 2 -12.6
v 0 2.1 -12.6
v 12.6 2 -12.6
v 12.6 2.1 -12.6
v 0 2 0
v 12.6 2 0
v 1.2 2 -0.8
v 2.3 2 -0.8
v 1.2 2 -1.4
v 2.3 2 -1.4
v 9.2 2 -1.9
v 9.9 2 -1.9
v 3.6 2 -2.1
v 4.1 2 -2.1
v 4.8 2 -2.3
v 7 2 -2.3
v 9.2 2 -2.4
v 9.9 2 -2.4
v 3.6 2 -2.5
v 4.1 2 -2.5
v 4.8 2 -5.3
v 7 2 -5.3
v 9.1 2 -5.5
v 9.7 2 -5.5
v 9.1 2 -5.8
v 9.7 2 -5.8
v 1.1 2 -6.3
v 3.1 2 -6.3
v 6.6 2 -6.7
v 11.7 2 -6.7
v 1.1 2 -8.1
v 3.1 2 -8.1
v 6.6 2 -9.1
v 11.7 2 -9.1
v 5.2 2 -10
v 5.3 2 -10
v 5.2 2 -10.2
v 5.3 2 -10.2
v 1.2 2 -10.3
v 2 2 -10.3
v 10.1 2 -10.6
v 10.4 2 -10.6
v 10.1 2 -10.7
v 10.4 2 -10.7
v 1.2 2 -11
v 2 2 -11
v 6.2 2 -11.5
v 6.7 2 -11.5
v 6.2 2 -11.9
v 6.7 2 -11.9
v 0 2 -12.6
v 12.6 2 -12.6
v 0 2.1 0
v 12.6 2.1 0
v 1.2 2.1 -0.8
v 2.3 2.1 -0.8
v 1.2 2.1 -1.4
v 2.3 2.1 -1.4
v 9.2 2.1 -1.9
v 9.9 2.1 -1.9
v 3.6 2.1 -2.1
v 4.1 2.1 -2.1
v 4.8 2.1 -2.3
v 7 2.1 -2.3
v 9.2 2.1 -2.4
v 9.9 2.1 -2.4
v 3.6 2.1 -2.5
v 4.1 2.1 -2.5
v 4.8 2.1 -5.3
v 7 2.1 -5.3
v 9.1 2.1 -5.5
v 9.7 2.1 -5.5
v 9.1 2.1 -5.8
v 9.7 2.1 -5.8
v 0.9 2.1 -6.1
v 4.9 2.1 -6.1
v 0.9 2.1 -6.4
v 1.1 2.1 -6.4
v 3.1 2.1 -6.4
v 4.6 2.1 -6.4
v 6.6 2.1 -6.7
v 11.7 2.1 -6.7
v 8.4 2.1 -7.2
v 11.7 2.1 -7.2
v 12.5 2.1 -7.2
v 1.1 2.1 -8.1
v 3.1 2.1 -8.1
v 4.6 2.1 -8.5
v 4.9 2.1 -8.5
v 6.6 2.1 -9.1
v 8.4 2.1 -9.1
v 5.2 2.1 -10
v 5.3 2.1 -10
v 5.2 2.1 -10.2
v 5.3 2.1 -10.2
v 1.2 2.1 -10.3
v 2 2.1 -10.3
v 8.4 2.1 -10.9
v 12.5 2.1 -10.9
v 1.2 2.1 -11
v 2 2.1 -11
v 6.2 2.1 -11.5
v 6.7 2.1 -11.5
v 6.2 2.1 -11.9
v 6.7 2.1 -11.9
v 0 2.1 -12.6
v 12.6 2.1 -12.6
v 8.4 2.2 -7.2
v 12.5 2.2 -7.2
v 9.1 2.2 -7.7
v 12.5 2.2 -7.7
v 8.4 2.2 -10.9
v 9.1 2.2 -10.9
v 9.1 2.4 -7.7
v 12.5 2.4 -7.7
v 9.8 2.4 -8.2
v 12.5 2.4 -8.2
v 9.1 2.4 -10.9
v 9.8 2.4 -10.9
v 9.8 2.7 -8.2
v 12.5 2.7 -8.2
v 10.4 2.7 -8.7
v 12.5 2.7 -8.7
v 9.8 2.7 -10.9
v 10.4 2.7 -10.9
v 10.4 3.1 -8.7
v 12.5 3.1 -8.7
v 10.4 3.1 -10.9
v 12.5 3.1 -10.9
v 0.9 5.5 -6.1
v 4.9 5.5 -6.1
v 0.9 5.5 -6.4
v 4.6 5.5 -6.4
v 4.6 5.5 -8.5
v 4.9 5.5 -8.5

# faces
f 3/1/1 2/1/1 1/1/1
f 4/1/1 2/1/1 3/1/1
f 7/3/1 6/3/1 5/3/1
f 8/3/1 6/3/1 7/3/1
f 11/3/1 10/3/1 9/3/1
f 12/3/1 10/3/1 11/3/1
f 16/3/1 14/3/1 13/3/1
f 16/3/1 15/3/1 14/3/1
f 17/3/1 15/3/1 16/3/1
f 20/3/1 19/3/1 18/3/1
f 21/3/1 19/3/1 20/3/1
f 24/3/1 23/3/1 22/3/1
f 25/3/1 23/3/1 24/3/1
f 28/3/1 27/3/1 26/3/1
f 29/3/1 27/3/1 28/3/1
f 30/3/2 31/3/2 32/3/2
f 32/3/2 31/3/2 33/3/2
f 34/3/2 35/3/2 36/3/2
f 36/3/2 35/3/2 37/3/2
f 37/3/2 35/3/2 38/3/2
f 38/3/2 35/3/2 39/3/2
f 39/3/2 35/3/2 40/3/2
f 40/3/2 35/3/2 41/3/2
f 41/3/2 35/3/2 42/3/2
f 42/3/2 35/3/2 43/3/2
f 44/1/2 45/1/2 46/1/2
f 46/1/2 45/1/2 47/1/2
f 50/1/3 49/1/3 48/1/3
f 51/1/3 49/1/3 50/1/3
f 54/3/3 53/3/3 52/3/3
f 55/3/3 53/3/3 54/3/3
f 58/3/3 57/3/3 56/3/3
f 59/3/3 57/3/3 58/3/3
f 60/3/3 57/3/3 59/3/3
f 63/3/3 62/3/3 61/3/3
f 64/3/3 62/3/3 63/3/3
f 67/3/3 66/3/3 65/3/3
f 68/3/3 66/3/3 67/3/3
f 71/3/3 70/3/3 69/3/3
f 72/3/3 70/3/3 71/3/3
f 73/3/4 74/3/4 75/3/4
f 75/3/4 74/3/4 76/3/4
f 76/3/4 74/3/4 77/3/4
f 77/3/4 74/3/4 78/3/4
f 79/3/4 80/3/4 81/3/4
f 81/3/4 80/3/4 82/3/4
f 83/3/4 84/3/4 85/3/4
f 85/3/4 86/3/4 87/3/4
f 87/3/4 88/3/4 89/3/4
f 83/3/4 85/3/4 91/3/4
f 89/3/4 90/3/4 91/3/4
f 87/3/4 89/3/4 91/3/4
f 85/3/4 87/3/4 91/3/4
f 91/3/4 90/3/4 92/3/4
f 93/1/4 94/1/4 95/1/4
f 95/1/4 94/1/4 96/1/4
f 99/1/5 98/1/5 97/1/5
f 100/1/5 98/1/5 99/1/5
f 101/1/5 99/1/5 97/1/5
f 101/2/5 100/2/5 99/2/5
f 102/1/5 98/1/5 100/1/5
f 102/2/5 100/2/5 101/2/5
f 103/1/5 102/1/5 101/1/5
f 103/1/5 98/1/5 102/1/5
f 104/1/5 98/1/5 103/1/5
f 105/1/5 103/1/5 101/1/5
f 106/1/5 103/1/5 105/1/5
f 107/1/5 103/1/5 106/1/5
f 108/1/5 103/1/5 107/1/5
f 109/2/5 104/2/5 103/2/5
f 109/1/5 103/1/5 108/1/5
f 110/1/5 98/1/5 104/1/5
f 110/2/5 104/2/5 109/2/5
f 111/1/5 105/1/5 101/1/5
f 111/2/5 106/2/5 105/2/5
f 112/1/5 107/1/5 106/1/5
f 112/2/5 106/2/5 111/2/5
f 113/2/5 108/2/5 107/2/5
f 113/1/5 107/1/5 112/1/5
f 113/1/5 112/1/5 111/1/5
f 114/1/5 109/1/5 108/1/5
f 114/2/5 108/2/5 113/2/5
f 114/1/5 110/1/5 109/1/5
f 115/1/5 114/1/5 113/1/5
f 115/1/5 110/1/5 114/1/5
f 116/1/5 110/1/5 115/1/5
f 117/1/5 115/1/5 113/1/5
f 117/2/5 116/2/5 115/2/5
f 118/1/5 110/1/5 116/1/5
f 118/2/5 116/2/5 117/2/5
f 119/1/5 101/1/5 97/1/5
f 119/1/5 113/1/5 111/1/5
f 119/1/5 118/1/5 117/1/5
f 119/1/5 117/1/5 113/1/5
f 119/1/5 111/1/5 101/1/5
f 120/1/5 118/1/5 119/1/5
f 121/1/5 118/1/5 120/1/5
f 122/1/5 110/1/5 118/1/5
f 122/1/5 118/1/5 121/1/5
f 122/1/5 98/1/5 110/1/5
f 123/2/5 120/2/5 119/2/5
f 123/1/5 119/1/5 97/1/5
f 124/1/5 121/1/5 120/1/5
f 124/2/5 120/2/5 123/2/5
f 125/2/5 122/2/5 121/2/5
f 125/1/5 121/1/5 124/1/5
f 125/1/5 124/1/5 123/1/5
f 126/1/5 98/1/5 122/1/5
f 126/2/5 122/2/5 125/2/5
f 127/1/5 125/1/5 123/1/5
f 127/1/5 126/1/5 125/1/5
f 128/1/5 126/1/5 127/1/5
f 129/1/5 127/1/5 123/1/5
f 129/2/5 128/2/5 127/2/5
f 130/1/5 126/1/5 128/1/5
f 130/2/5 128/2/5 129/2/5
f 131/1/5 129/1/5 123/1/5
f 131/1/5 130/1/5 129/1/5
f 132/1/5 130/1/5 131/1/5
f 133/1/5 126/1/5 130/1/5
f 133/1/5 130/1/5 132/1/5
f 134/1/5 126/1/5 133/1/5
f 135/1/5 133/1/5 132/1/5
f 135/2/5 134/2/5 133/2/5
f 136/1/5 126/1/5 134/1/5
f 136/2/5 134/2/5 135/2/5
f 137/2/5 132/2/5 131/2/5
f 137/1/5 131/1/5 123/1/5
f 138/1/5 136/1/5 135/1/5
f 138/2/5 132/2/5 137/2/5
f 138/1/5 135/1/5 132/1/5
f 139/1/5 138/1/5 137/1/5
f 139/1/5 136/1/5 138/1/5
f 140/1/5 136/1/5 139/1/5
f 141/1/5 139/1/5 137/1/5
f 141/2/5 140/2/5 139/2/5
f 142/1/5 136/1/5 140/1/5
f 142/2/5 140/2/5 141/2/5
f 143/1/5 123/1/5 97/1/5
f 143/1/5 137/1/5 123/1/5
f 143/1/5 142/1/5 141/1/5
f 143/1/5 141/1/5 137/1/5
f 144/1/5 136/1/5 142/1/5
f 144/1/5 142/1/5 143/1/5
f 144/1/5 98/1/5 126/1/5
f 144/1/5 126/1/5 136/1/5
f 145/1/6 146/1/6 147/1/6
f 147/1/6 146/1/6 148/1/6
f 145/1/6 147/1/6 149/1/6
f 147/2/6 148/2/6 149/2/6
f 148/1/6 146/1/6 150/1/6
f 149/2/6 148/2/6 150/2/6
f 149/1/6 150/1/6 151/1/6
f 150/1/6 146/1/6 151/1/6
f 151/1/6 146/1/6 152/1/6
f 149/1/6 151/1/6 153/1/6
f 153/1/6 151/1/6 154/1/6
f 154/1/6 151/1/6 155/1/6
f 155/1/6 151/1/6 156/1/6
f 151/2/6 152/2/6 157/2/6
f 156/1/6 151/1/6 157/1/6
f 152/1/6 146/1/6 158/1/6
f 157/2/6 152/2/6 158/2/6
f 149/1/6 153/1/6 159/1/6
f 153/2/6 154/2/6 159/2/6
f 154/1/6 155/1/6 160/1/6
f 159/2/6 154/2/6 160/2/6
f 155/2/6 156/2/6 161/2/6
f 160/1/6 155/1/6 161/1/6
f 159/1/6 160/1/6 161/1/6
f 156/1/6 157/1/6 162/1/6
f 161/2/6 156/2/6 162/2/6
f 157/1/6 158/1/6 162/1/6
f 161/1/6 162/1/6 163/1/6
f 162/1/6 158/1/6 163/1/6
f 163/1/6 158/1/6 164/1/6
f 161/1/6 163/1/6 165/1/6
f 163/2/6 164/2/6 165/2/6
f 164/1/6 158/1/6 166/1/6
f 165/2/6 164/2/6 166/2/6
f 145/1/6 149/1/6 167/1/6
f 159/1/6 161/1/6 167/1/6
f 165/1/6 166/1/6 167/1/6
f 161/1/6 165/1/6 167/1/6
f 149/1/6 159/1/6 167/1/6
f 167/1/6 166/1/6 168/1/6
f 145/1/6 167/1/6 169/1/6
f 168/1/6 166/1/6 173/1/6
f 166/1/6 158/1/6 174/1/6
f 173/1/6 166/1/6 174/1/6
f 158/1/6 146/1/6 174/1/6
f 173/2/6 174/2/6 175/2/6
f 174/1/6 146/1/6 176/1/6
f 175/2/6 174/2/6 176/2/6
f 176/1/6 146/1/6 177/1/6
f 170/2/6 171/2/6 178/2/6
f 169/1/6 170/1/6 178/1/6
f 171/1/6 172/1/6 179/1/6
f 178/2/6 171/2/6 179/2/6
f 178/1/6 179/1/6 180/1/6
f 179/1/6 172/1/6 180/1/6
f 168/1/6 173/1/6 181/1/6
f 173/2/6 175/2/6 182/2/6
f 180/1/6 181/1/6 182/1/6
f 181/1/6 173/1/6 182/1/6
f 182/2/6 175/2/6 183/2/6
f 180/1/6 182/1/6 184/1/6
f 182/1/6 183/1/6 184/1/6
f 184/1/6 183/1/6 185/1/6
f 180/1/6 184/1/6 186/1/6
f 184/2/6 185/2/6 186/2/6
f 185/1/6 183/1/6 187/1/6
f 186/2/6 185/2/6 187/2/6
f 178/1/6 180/1/6 188/1/6
f 180/1/6 186/1/6 188/1/6
f 186/1/6 187/1/6 188/1/6
f 188/1/6 187/1/6 189/1/6
f 187/1/6 183/1/6 190/1/6
f 189/1/6 187/1/6 190/1/6
f 177/1/6 146/1/6 191/1/6
f 188/2/6 189/2/6 192/2/6
f 178/1/6 188/1/6 192/1/6
f 190/1/6 191/1/6 193/1/6
f 192/2/6 189/2/6 193/2/6
f 189/1/6 190/1/6 193/1/6
f 192/1/6 193/1/6 194/1/6
f 193/1/6 191/1/6 194/1/6
f 194/1/6 191/1/6 195/1/6
f 192/1/6 194/1/6 196/1/6
f 194/2/6 195/2/6 196/2/6
f 195/1/6 191/1/6 197/1/6
f 196/2/6 195/2/6 197/2/6
f 178/1/6 192/1/6 198/1/6
f 169/1/6 178/1/6 198/1/6
f 196/1/6 197/1/6 198/1/6
f 192/1/6 196/1/6 198/1/6
f 145/1/6 169/1/6 198/1/6
f 197/1/6 191/1/6 199/1/6
f 198/1/6 197/1/6 199/1/6
f 191/1/6 146/1/6 199/1/6
f 200/3/6 201/3/6 202/3/6
f 202/3/6 201/3/6 203/3/6
f 200/3/6 202/3/6 204/3/6
f 204/3/6 202/3/6 205/3/6
f 206/3/6 207/3/6 208/3/6
f 208/3/6 207/3/6 209/3/6
f 206/3/6 208/3/6 210/3/6
f 210/3/6 208/3/6 211/3/6
f 212/3/6 213/3/6 214/3/6
f 214/3/6 213/3/6 215/3/6
f 212/3/6 214/3/6 216/3/6
f 216/3/6 214/3/6 217/3/6
f 218/3/6 219/3/6 220/3/6
f 220/3/6 219/3/6 221/3/6
f 222/3/6 223/3/6 224/3/6
f 224/3/6 223/3/6 225/3/6
f 225/3/6 223/3/6 226/3/6
f 226/3/6 223/3/6 227/3/6
